<?xml version="1.0" encoding="UTF-8" standalone="no"?>
<svg
   height="20"
   viewBox="0 -960 800 800"
   width="20"
   fill="#ffffff"
   version="1.1"
   id="svg1"
   sodipodi:docname="dpad.svg"
   inkscape:version="1.4 (e7c3feb100, 2024-10-09)"
   xmlns:inkscape="http://www.inkscape.org/namespaces/inkscape"
   xmlns:sodipodi="http://sodipodi.sourceforge.net/DTD/sodipodi-0.dtd"
   xmlns="http://www.w3.org/2000/svg"
   xmlns:svg="http://www.w3.org/2000/svg">
  <defs
     id="defs1" />
  <sodipodi:namedview
     id="namedview1"
     pagecolor="#ffffff"
     bordercolor="#000000"
     borderopacity="0.25"
     inkscape:showpageshadow="2"
     inkscape:pageopacity="0.0"
     inkscape:pagecheckerboard="0"
     inkscape:deskcolor="#d1d1d1"
     inkscape:zoom="50.375"
     inkscape:cx="9.9950372"
     inkscape:cy="9.9950372"
     inkscape:window-width="2560"
     inkscape:window-height="1368"
     inkscape:window-x="0"
     inkscape:window-y="0"
     inkscape:window-maximized="1"
     inkscape:current-layer="svg1" />
  <path
     d="m 400,-734 z m 174,174 z m -348,0 z m 174,174 z m 0,-234 -120,-120 v -220 h 240 v 220 z m 180,180 -120,-120 120,-120 h 220 v 240 z m -580,0 v -240 h 220 l 120,120 -120,120 z m 280,280 v -220 l 120,-120 120,120 v 220 z m 120,-574 40,-40 v -106 h -80 v 106 z M 80,-520 h 106 l 40,-40 -40,-40 H 80 Z m 280,280 h 80 v -106 l -40,-40 -40,40 z m 254,-280 h 106 v -80 H 614 l -40,40 z"
     id="path1" />
</svg>
