<?xml version="1.0" encoding="UTF-8" standalone="no"?>
<svg
   height="21"
   viewBox="0 -960 640 840"
   width="16"
   fill="#ffffff"
   version="1.1"
   id="svg1"
   sodipodi:docname="lock.svg"
   inkscape:version="1.4 (e7c3feb100, 2024-10-09)"
   xmlns:inkscape="http://www.inkscape.org/namespaces/inkscape"
   xmlns:sodipodi="http://sodipodi.sourceforge.net/DTD/sodipodi-0.dtd"
   xmlns="http://www.w3.org/2000/svg"
   xmlns:svg="http://www.w3.org/2000/svg">
  <defs
     id="defs1" />
  <sodipodi:namedview
     id="namedview1"
     pagecolor="#ffffff"
     bordercolor="#000000"
     borderopacity="0.25"
     inkscape:showpageshadow="2"
     inkscape:pageopacity="0.0"
     inkscape:pagecheckerboard="0"
     inkscape:deskcolor="#d1d1d1"
     inkscape:zoom="48.541667"
     inkscape:cx="8.0034335"
     inkscape:cy="10.990558"
     inkscape:window-width="2560"
     inkscape:window-height="1368"
     inkscape:window-x="0"
     inkscape:window-y="0"
     inkscape:window-maximized="1"
     inkscape:current-layer="svg1" />
  <path
     d="M 80,-120 Q 47,-120 23.5,-143.5 0,-167 0,-200 V -600 Q 0,-633 23.5,-656.5 47,-680 80,-680 h 40 v -80 q 0,-83 58.5,-141.5 Q 237,-960 320,-960 q 83,0 141.5,58.5 Q 520,-843 520,-760 v 80 h 40 q 33,0 56.5,23.5 23.5,23.5 23.5,56.5 v 400 q 0,33 -23.5,56.5 Q 593,-120 560,-120 Z m 0,-80 H 560 V -600 H 80 Z m 240,-120 q 33,0 56.5,-23.5 Q 400,-367 400,-400 400,-433 376.5,-456.5 353,-480 320,-480 q -33,0 -56.5,23.5 -23.5,23.5 -23.5,56.5 0,33 23.5,56.5 Q 287,-320 320,-320 Z M 200,-680 h 240 v -80 q 0,-50 -35,-85 -35,-35 -85,-35 -50,0 -85,35 -35,35 -35,85 z M 80,-200 v -400 z"
     id="path1" />
</svg>
