<?xml version="1.0" encoding="UTF-8" standalone="no"?>
<svg
   height="17.5"
   viewBox="0 -960 720 700"
   width="18"
   fill="#ffffff"
   version="1.1"
   id="svg1"
   sodipodi:docname="volume2.svg"
   inkscape:version="1.4 (e7c3feb100, 2024-10-09)"
   xmlns:inkscape="http://www.inkscape.org/namespaces/inkscape"
   xmlns:sodipodi="http://sodipodi.sourceforge.net/DTD/sodipodi-0.dtd"
   xmlns="http://www.w3.org/2000/svg"
   xmlns:svg="http://www.w3.org/2000/svg">
  <defs
     id="defs1" />
  <sodipodi:namedview
     id="namedview1"
     pagecolor="#ffffff"
     bordercolor="#000000"
     borderopacity="0.25"
     inkscape:showpageshadow="2"
     inkscape:pageopacity="0.0"
     inkscape:pagecheckerboard="0"
     inkscape:deskcolor="#d1d1d1"
     inkscape:zoom="50.375"
     inkscape:cx="9.0024814"
     inkscape:cy="8.7841191"
     inkscape:window-width="2560"
     inkscape:window-height="1368"
     inkscape:window-x="0"
     inkscape:window-y="0"
     inkscape:window-maximized="1"
     inkscape:current-layer="svg1" />
  <path
     d="m 440,-260 v -82 q 90,-26 145,-100 55,-74 55,-168 0,-94 -55,-168 -55,-74 -145,-100 v -82 q 124,28 202,125.5 78,97.5 78,224.5 0,127 -78,224.5 Q 564,-288 440,-260 Z M 0,-489 v -240 h 160 l 200,-200 v 640 L 160,-489 Z m 440,40 v -322 q 47,22 73.5,66 26.5,44 26.5,96 0,51 -26.5,94.5 Q 487,-471 440,-449 Z m -160,-286 -86,86 H 80 v 80 h 114 l 86,86 z m -100,126 z"
     id="path1" />
</svg>
