<?xml version="1.0" encoding="UTF-8"?>
<svg version="1.1" viewBox="0 0 16 16" xmlns="http://www.w3.org/2000/svg"><path d="m5 1-4 4v6l4 4h6l4-4v-6l-4-4h-6zm0 3.5c0.1326 2e-5 0.25976 0.052712 0.35352 0.14648l2.6465 2.6465 2.6465-2.6465c0.19525-0.19521 0.51178-0.19521 0.70703 0 0.19521 0.19525 0.19521 0.51178 0 0.70703l-2.6465 2.6465 2.6465 2.6465c0.19521 0.19525 0.19521 0.51178 0 0.70703-0.19525 0.19521-0.51178 0.19521-0.70703 0l-2.6465-2.6465-2.6465 2.6465c-0.19525 0.19521-0.51178 0.19521-0.70703 0-0.19521-0.19525-0.19521-0.51178 0-0.70703l2.6465-2.6465-2.6465-2.6465c-0.19521-0.19525-0.19521-0.51178 0-0.70703 0.093753-0.093772 0.22092-0.14646 0.35352-0.14648z" fill="#fff" style="paint-order:stroke fill markers"/></svg>
