<?xml version="1.0" encoding="UTF-8"?>
<svg version="1.1" viewBox="0 0 24 24" xmlns="http://www.w3.org/2000/svg" xmlns:xlink="http://www.w3.org/1999/xlink"><defs><mask id="mask17" maskUnits="userSpaceOnUse"><g><circle cx="12" cy="12" r="6" fill="none" stroke="#fff" stroke-linecap="round" stroke-width="3" style="paint-order:stroke fill markers"/><path d="m12 2v4" fill="none" stroke="#fff" stroke-width="3" style="paint-order:stroke fill markers"/><path d="m22 12h-4" fill="none" stroke="#fff" stroke-width="3" style="paint-order:normal"/><path d="m12 22v-4" fill="none" stroke="#fff" stroke-width="3" style="paint-order:stroke fill markers"/><path d="m6 12h-4" fill="none" stroke="#fff" stroke-width="3" style="paint-order:stroke fill markers"/><path d="m8 8-3-3" fill="none" stroke="#fff" stroke-width="3" style="paint-order:stroke fill markers"/><path d="m16 8 3-3" fill="none" stroke="#fff" stroke-width="3" style="paint-order:stroke fill markers"/><path d="m16 16 3 3" fill="none" stroke="#fff" stroke-width="3" style="paint-order:stroke fill markers"/><path d="m8 16-3 3" fill="none" stroke="#fff" stroke-width="3" style="paint-order:stroke fill markers"/></g></mask><linearGradient id="linearGradient27" x1="2" x2="22" y1="2" y2="22" gradientUnits="userSpaceOnUse"><stop stop-color="#dbe2e3" offset="0"/><stop stop-color="#6f8a91" offset="1"/></linearGradient></defs><g fill="none" stroke="#374548" stroke-width="5"><circle cx="12" cy="12" r="6" stroke-linecap="round" style="paint-order:stroke fill markers"/><g stroke-linejoin="bevel"><path d="m12 1v5" style="paint-order:stroke fill markers"/><path d="m23 12h-5" style="paint-order:normal"/><path d="m12 23v-5" style="paint-order:stroke fill markers"/><path d="m6 12h-5" style="paint-order:stroke fill markers"/><path d="m8 8-4-4" style="paint-order:stroke fill markers"/><path d="m16 8 4-4" style="paint-order:stroke fill markers"/><path d="m16 16 4 4" style="paint-order:stroke fill markers"/><path d="m8 16-4 4" style="paint-order:stroke fill markers"/></g></g><rect width="24" height="24" rx="2" ry="2" fill="url(#linearGradient27)" mask="url(#mask17)" style="paint-order:normal"/></svg>
