<?xml version="1.0" encoding="UTF-8"?>
<svg version="1.1" viewBox="0 0 24 24" xmlns="http://www.w3.org/2000/svg"><path d="m4 17h8v4h-8zm8 0a4 4 0 0 1-4 4 4 4 0 0 1-4-4 4 4 0 0 1 4-4 4 4 0 0 1 4 4zm0-8a4 4 0 0 1-4 4 4 4 0 0 1-4-4 4 4 0 0 1 4-4 4 4 0 0 1 4 4z" fill="#fff" stroke-linecap="round" stroke-linejoin="round" stroke-width="2"/><path d="m15 3a4 4 0 0 0-3.625 2.3242 5 5 0 0 1 1.625 3.6758 5 5 0 0 1-0.18555 1.3418 4 4 0 0 0 2.1855 0.6582 4 4 0 0 0 4-4 4 4 0 0 0-4-4zm0 8a4 4 0 0 0-3.623 2.3223 5 5 0 0 1 1.623 3.6777 5 5 0 0 1-0.025391 0.5h0.025391v1.5h6v-4a4 4 0 0 0-4-4z" fill="#fff" stroke-linecap="round" stroke-linejoin="round" stroke-width="2"/></svg>
