<?xml version="1.0" encoding="UTF-8" standalone="no"?>
<!-- Generator: Adobe Illustrator 19.2.0, SVG Export Plug-In . SVG Version: 6.00 Build 0)  -->

<svg
   version="1.1"
   id="Layer_1"
   x="0px"
   y="0px"
   viewBox="0 0 50 150"
   style="enable-background:new 0 0 50 150;"
   xml:space="preserve"
   sodipodi:docname="script.svg"
   inkscape:version="1.1.1 (3bf5ae0d25, 2021-09-20)"
   xmlns:inkscape="http://www.inkscape.org/namespaces/inkscape"
   xmlns:sodipodi="http://sodipodi.sourceforge.net/DTD/sodipodi-0.dtd"
   xmlns="http://www.w3.org/2000/svg"
   xmlns:svg="http://www.w3.org/2000/svg"><defs
   id="defs75"><pattern
     patternUnits="userSpaceOnUse"
     width="30.420844"
     height="6.5893951"
     patternTransform="translate(9.076365,85.62981)"
     id="pattern181821"><text
       xml:space="preserve"
       style="font-style:normal;font-variant:normal;font-weight:bold;font-stretch:normal;font-size:8.76147px;line-height:1.25;font-family:Roboto;-inkscape-font-specification:'Roboto Bold';fill:#eaeaea;fill-opacity:1;stroke:none;stroke-width:0.219039"
       x="-0.31657657"
       y="6.3785896"
       id="text177288"
       transform="scale(0.98488846,1.0153434)"><tspan
         sodipodi:role="line"
         id="tspan177286"
         x="-0.31657657"
         y="6.3785896"
         style="font-style:normal;font-variant:normal;font-weight:bold;font-stretch:normal;font-family:Arial;-inkscape-font-specification:'Arial Bold';fill:#eaeaea;stroke-width:0.219039">SOUND</tspan></text></pattern><pattern
     patternUnits="userSpaceOnUse"
     width="30.420844"
     height="6.5893951"
     patternTransform="translate(9.0763649,35.629775)"
     id="pattern185125"><text
       xml:space="preserve"
       style="font-style:normal;font-variant:normal;font-weight:bold;font-stretch:normal;font-size:8.76147px;line-height:1.25;font-family:Roboto;-inkscape-font-specification:'Roboto Bold';fill:#000000;fill-opacity:1;stroke:none;stroke-width:0.219039"
       x="-0.31657654"
       y="6.3785896"
       id="text128632"
       transform="scale(0.98488846,1.0153434)"><tspan
         sodipodi:role="line"
         id="tspan128630"
         x="-0.31657654"
         y="6.3785896"
         style="font-style:normal;font-variant:normal;font-weight:bold;font-stretch:normal;font-family:Arial;-inkscape-font-specification:'Arial Bold';fill:#000000;stroke-width:0.219039">SOUND</tspan></text></pattern><pattern
     patternUnits="userSpaceOnUse"
     width="30.420844"
     height="6.5893951"
     patternTransform="translate(9.076365,135.62983)"
     id="pattern185150"><text
       xml:space="preserve"
       style="font-style:normal;font-variant:normal;font-weight:bold;font-stretch:normal;font-size:8.76147px;line-height:1.25;font-family:Roboto;-inkscape-font-specification:'Roboto Bold';opacity:0.47;fill:#eaeaea;fill-opacity:1;stroke:none;stroke-width:0.219039"
       x="-0.31657657"
       y="6.3785896"
       id="text177292"
       transform="scale(0.98488846,1.0153434)"><tspan
         sodipodi:role="line"
         id="tspan177290"
         x="-0.31657657"
         y="6.3785896"
         style="font-style:normal;font-variant:normal;font-weight:bold;font-stretch:normal;font-family:Arial;-inkscape-font-specification:'Arial Bold';fill:#eaeaea;stroke-width:0.219039">SOUND</tspan></text></pattern></defs><sodipodi:namedview
   id="namedview73"
   pagecolor="#ffffff"
   bordercolor="#666666"
   borderopacity="1.0"
   inkscape:pageshadow="2"
   inkscape:pageopacity="0.0"
   inkscape:pagecheckerboard="0"
   showgrid="false"
   inkscape:zoom="11.313708"
   inkscape:cx="19.622213"
   inkscape:cy="20.638679"
   inkscape:window-width="1657"
   inkscape:window-height="963"
   inkscape:window-x="1686"
   inkscape:window-y="19"
   inkscape:window-maximized="0"
   inkscape:current-layer="Layer_1" />
<style
   type="text/css"
   id="style2">
	.st0{opacity:0.9;}
	.st1{fill:#FFFFFF;}
	.st2{fill:#1E1E1E;}
	.st3{fill:#EAEAEA;}
	.st4{opacity:0.47;}
</style>
<g
   class="st4"
   id="g52">
	<path
   class="st2"
   d="M50,146.3c0,2.2-1.8,4-4,4H4c-2.2,0-4-1.8-4-4v-42c0-2.2,1.8-4,4-4h42c2.2,0,4,1.8,4,4V146.3z"
   id="path50" />
</g><g
   class="st0"
   id="g12">
	<path
   class="st2"
   d="M50,96.3c0,2.2-1.8,4-4,4H4c-2.2,0-4-1.8-4-4v-42c0-2.2,1.8-4,4-4h42c2.2,0,4,1.8,4,4V96.3z"
   id="path10" />
</g><g
   id="g8">
	<g
   class="st0"
   id="g6">
		<path
   class="st1"
   d="M50,46.3c0,2.2-1.8,4-4,4H4c-2.2,0-4-1.8-4-4v-42c0-2.2,1.8-4,4-4h42c2.2,0,4,1.8,4,4V46.3z"
   id="path4" />
	</g>
</g>


<rect
   style="stroke:none;fill:none"
   width="30.420844"
   height="6.5893951"
   x="9.0763649"
   y="35.629775"
   id="rect185129" />

<rect
   style="stroke:none;fill:none"
   width="30.420844"
   height="6.5893951"
   x="9.076365"
   y="85.62981"
   id="rect181825" />


<rect
   style="stroke:none;fill:none"
   width="30.420844"
   height="6.5893951"
   x="9.076365"
   y="135.62983"
   id="rect185154" />
<g
   id="g29713"
   transform="translate(0.04326905,49.93062)"
   style="fill:#ececec"><text
     xml:space="preserve"
     style="font-style:normal;font-weight:normal;font-size:8.85562px;line-height:1.25;font-family:sans-serif;fill:#ececec;fill-opacity:1;stroke:none;stroke-width:0.22139"
     x="8.8333902"
     y="41.980923"
     id="text29709"><tspan
       sodipodi:role="line"
       id="tspan29707"
       x="8.8333902"
       y="41.980923"
       style="font-style:normal;font-variant:normal;font-weight:bold;font-stretch:normal;font-size:8.85562px;font-family:Roboto;-inkscape-font-specification:'Roboto, Bold';font-variant-ligatures:normal;font-variant-caps:normal;font-variant-numeric:normal;font-variant-east-asian:normal;fill:#ececec;stroke-width:0.22139">SCRIPT</tspan></text><path
     id="path29711"
     style="fill:#ececec;stroke-width:0.0585441"
     d="M 21.619141,7.0722656 V 15.03125 H 18.716797 A 3.9664259,3.6550682 0 0 0 14.798828,11.923828 V 13.375 H 11.375 v 1.1875 h 3.423828 v 1.015625 l 0.0039,0.984375 H 11.375 V 17.75 h 3.431641 l 0.0059,1.482422 a 3.9664259,3.6550682 0 0 0 3.865234,-2.888672 h 2.941407 v 6.949219 h -4.845703 l 0.160156,0.966797 0.05273,0.384765 c 0.071,0.257484 0.178324,0.611902 0.320313,1.0625 0.141979,0.450596 0.318272,0.869633 0.53125,1.25586 0.922906,1.888215 2.218393,2.832031 3.886718,2.832031 h 7.988282 c 0.177483,0 0.336528,-0.07441 0.478515,-0.22461 0.141948,-0.1502 0.212891,-0.332304 0.212891,-0.546874 0,-0.557881 -0.229956,-0.837891 -0.691406,-0.837891 h -7.988282 c -1.135876,0 -2.057648,-0.685347 -2.767578,-2.058594 -0.212977,-0.429141 -0.373975,-0.859921 -0.480469,-1.289062 h 11.714844 c 0.071,0.600798 0.249236,1.223475 0.533203,1.867187 0.816422,1.759472 2.111911,2.638672 3.886719,2.638672 1.100381,0 1.987674,-0.45037 2.66211,-1.351562 0.425955,-0.557882 0.736407,-1.286305 0.93164,-2.1875 0.195217,-0.901194 0.273761,-1.631571 0.238281,-2.189454 -0.03548,-0.557882 -0.05273,-0.965172 -0.05273,-1.222656 V 7.0722656 Z m 1.330078,1.609375 h 14.111328 v 13.7753904 0.06445 1.738282 c -0.071,1.201591 -0.33737,2.102329 -0.798828,2.703125 -0.461449,0.557882 -1.011459,0.835937 -1.650391,0.835937 -1.242368,0 -2.148855,-0.599191 -2.716797,-1.800781 -0.283968,-0.643712 -0.443035,-1.287931 -0.478515,-1.931641 l -0.05273,-0.773437 h -8.414062 z m 2.130859,2.0605474 c -0.496944,0 -0.746094,0.299595 -0.746094,0.90039 0,0.557881 0.24915,0.835938 0.746094,0.835938 h 9.84961 c 0.496944,0 0.746093,-0.278057 0.746093,-0.835938 0,-0.600795 -0.24915,-0.90039 -0.746093,-0.90039 z m 0,3.861328 c -0.496944,0 -0.746094,0.299595 -0.746094,0.90039 0,0.21457 0.0709,0.420168 0.212891,0.613282 0.141979,0.193109 0.320226,0.289062 0.533203,0.289062 h 9.84961 c 0.212969,0 0.391214,-0.09595 0.533203,-0.289062 0.141947,-0.193114 0.21289,-0.398712 0.21289,-0.613282 0,-0.600795 -0.24915,-0.90039 -0.746093,-0.90039 z m 0,3.925781 c -0.496944,0 -0.746094,0.280006 -0.746094,0.837891 0,0.600795 0.24915,0.90039 0.746094,0.90039 h 9.84961 c 0.496944,0 0.746093,-0.299595 0.746093,-0.90039 0,-0.557885 -0.24915,-0.837891 -0.746093,-0.837891 z" /></g><g
   id="g30305"
   transform="translate(0.07848358,99.91428)"
   style="fill:#b3b3b3"><text
     xml:space="preserve"
     style="font-style:normal;font-weight:normal;font-size:8.85562px;line-height:1.25;font-family:sans-serif;fill:#b3b3b3;fill-opacity:1;stroke:none;stroke-width:0.22139"
     x="8.8333902"
     y="41.980923"
     id="text30301"><tspan
       sodipodi:role="line"
       id="tspan30299"
       x="8.8333902"
       y="41.980923"
       style="font-style:normal;font-variant:normal;font-weight:bold;font-stretch:normal;font-size:8.85562px;font-family:Roboto;-inkscape-font-specification:'Roboto, Bold';font-variant-ligatures:normal;font-variant-caps:normal;font-variant-numeric:normal;font-variant-east-asian:normal;fill:#b3b3b3;stroke-width:0.22139">SCRIPT</tspan></text><path
     id="path30303"
     style="fill:#b3b3b3;stroke-width:0.0585441"
     d="M 21.619141,7.0722656 V 15.03125 H 18.716797 A 3.9664259,3.6550682 0 0 0 14.798828,11.923828 V 13.375 H 11.375 v 1.1875 h 3.423828 v 1.015625 l 0.0039,0.984375 H 11.375 V 17.75 h 3.431641 l 0.0059,1.482422 a 3.9664259,3.6550682 0 0 0 3.865234,-2.888672 h 2.941407 v 6.949219 h -4.845703 l 0.160156,0.966797 0.05273,0.384765 c 0.071,0.257484 0.178324,0.611902 0.320313,1.0625 0.141979,0.450596 0.318272,0.869633 0.53125,1.25586 0.922906,1.888215 2.218393,2.832031 3.886718,2.832031 h 7.988282 c 0.177483,0 0.336528,-0.07441 0.478515,-0.22461 0.141948,-0.1502 0.212891,-0.332304 0.212891,-0.546874 0,-0.557881 -0.229956,-0.837891 -0.691406,-0.837891 h -7.988282 c -1.135876,0 -2.057648,-0.685347 -2.767578,-2.058594 -0.212977,-0.429141 -0.373975,-0.859921 -0.480469,-1.289062 h 11.714844 c 0.071,0.600798 0.249236,1.223475 0.533203,1.867187 0.816422,1.759472 2.111911,2.638672 3.886719,2.638672 1.100381,0 1.987674,-0.45037 2.66211,-1.351562 0.425955,-0.557882 0.736407,-1.286305 0.93164,-2.1875 0.195217,-0.901194 0.273761,-1.631571 0.238281,-2.189454 -0.03548,-0.557882 -0.05273,-0.965172 -0.05273,-1.222656 V 7.0722656 Z m 1.330078,1.609375 h 14.111328 v 13.7753904 0.06445 1.738282 c -0.071,1.201591 -0.33737,2.102329 -0.798828,2.703125 -0.461449,0.557882 -1.011459,0.835937 -1.650391,0.835937 -1.242368,0 -2.148855,-0.599191 -2.716797,-1.800781 -0.283968,-0.643712 -0.443035,-1.287931 -0.478515,-1.931641 l -0.05273,-0.773437 h -8.414062 z m 2.130859,2.0605474 c -0.496944,0 -0.746094,0.299595 -0.746094,0.90039 0,0.557881 0.24915,0.835938 0.746094,0.835938 h 9.84961 c 0.496944,0 0.746093,-0.278057 0.746093,-0.835938 0,-0.600795 -0.24915,-0.90039 -0.746093,-0.90039 z m 0,3.861328 c -0.496944,0 -0.746094,0.299595 -0.746094,0.90039 0,0.21457 0.0709,0.420168 0.212891,0.613282 0.141979,0.193109 0.320226,0.289062 0.533203,0.289062 h 9.84961 c 0.212969,0 0.391214,-0.09595 0.533203,-0.289062 0.141947,-0.193114 0.21289,-0.398712 0.21289,-0.613282 0,-0.600795 -0.24915,-0.90039 -0.746093,-0.90039 z m 0,3.925781 c -0.496944,0 -0.746094,0.280006 -0.746094,0.837891 0,0.600795 0.24915,0.90039 0.746094,0.90039 h 9.84961 c 0.496944,0 0.746093,-0.299595 0.746093,-0.90039 0,-0.557885 -0.24915,-0.837891 -0.746093,-0.837891 z" /></g><g
   id="g29705"><text
     xml:space="preserve"
     style="font-style:normal;font-weight:normal;font-size:8.85562px;line-height:1.25;font-family:sans-serif;fill:#000000;fill-opacity:1;stroke:none;stroke-width:0.22139"
     x="8.8333902"
     y="41.980923"
     id="text3270"><tspan
       sodipodi:role="line"
       id="tspan12626"
       x="8.8333902"
       y="41.980923"
       style="font-style:normal;font-variant:normal;font-weight:bold;font-stretch:normal;font-size:8.85562px;font-family:Roboto;-inkscape-font-specification:'Roboto, Bold';font-variant-ligatures:normal;font-variant-caps:normal;font-variant-numeric:normal;font-variant-east-asian:normal;stroke-width:0.22139">SCRIPT</tspan></text><path
     id="path24260"
     style="stroke-width:0.0585441"
     d="M 21.619141 7.0722656 L 21.619141 15.03125 L 18.716797 15.03125 A 3.9664259 3.6550682 0 0 0 14.798828 11.923828 L 14.798828 13.375 L 11.375 13.375 L 11.375 14.5625 L 14.798828 14.5625 L 14.798828 15.578125 L 14.802734 16.5625 L 11.375 16.5625 L 11.375 17.75 L 14.806641 17.75 L 14.8125 19.232422 A 3.9664259 3.6550682 0 0 0 18.677734 16.34375 L 21.619141 16.34375 L 21.619141 23.292969 L 16.773438 23.292969 L 16.933594 24.259766 L 16.986328 24.644531 C 17.057326 24.902015 17.164652 25.256433 17.306641 25.707031 C 17.44862 26.157627 17.624913 26.576664 17.837891 26.962891 C 18.760797 28.851106 20.056284 29.794922 21.724609 29.794922 L 29.712891 29.794922 C 29.890374 29.794922 30.049419 29.720512 30.191406 29.570312 C 30.333354 29.420112 30.404297 29.238008 30.404297 29.023438 C 30.404297 28.465557 30.174341 28.185547 29.712891 28.185547 L 21.724609 28.185547 C 20.588733 28.185547 19.666961 27.5002 18.957031 26.126953 C 18.744054 25.697812 18.583056 25.267032 18.476562 24.837891 L 30.191406 24.837891 C 30.262404 25.438689 30.440642 26.061366 30.724609 26.705078 C 31.541031 28.46455 32.83652 29.34375 34.611328 29.34375 C 35.711709 29.34375 36.599002 28.89338 37.273438 27.992188 C 37.699393 27.434306 38.009845 26.705883 38.205078 25.804688 C 38.400295 24.903494 38.478839 24.173117 38.443359 23.615234 C 38.407879 23.057352 38.390625 22.650062 38.390625 22.392578 L 38.390625 7.0722656 L 21.619141 7.0722656 z M 22.949219 8.6816406 L 37.060547 8.6816406 L 37.060547 22.457031 L 37.060547 22.521484 L 37.060547 24.259766 C 36.989549 25.461357 36.723177 26.362095 36.261719 26.962891 C 35.80027 27.520773 35.25026 27.798828 34.611328 27.798828 C 33.36896 27.798828 32.462473 27.199637 31.894531 25.998047 C 31.610563 25.354335 31.451496 24.710116 31.416016 24.066406 L 31.363281 23.292969 L 22.949219 23.292969 L 22.949219 8.6816406 z M 25.080078 10.742188 C 24.583134 10.742188 24.333984 11.041783 24.333984 11.642578 C 24.333984 12.200459 24.583134 12.478516 25.080078 12.478516 L 34.929688 12.478516 C 35.426632 12.478516 35.675781 12.200459 35.675781 11.642578 C 35.675781 11.041783 35.426631 10.742188 34.929688 10.742188 L 25.080078 10.742188 z M 25.080078 14.603516 C 24.583134 14.603516 24.333984 14.903111 24.333984 15.503906 C 24.333984 15.718476 24.404888 15.924074 24.546875 16.117188 C 24.688854 16.310297 24.867101 16.40625 25.080078 16.40625 L 34.929688 16.40625 C 35.142657 16.40625 35.320902 16.310302 35.462891 16.117188 C 35.604838 15.924074 35.675781 15.718476 35.675781 15.503906 C 35.675781 14.903111 35.426631 14.603516 34.929688 14.603516 L 25.080078 14.603516 z M 25.080078 18.529297 C 24.583134 18.529297 24.333984 18.809303 24.333984 19.367188 C 24.333984 19.967983 24.583134 20.267578 25.080078 20.267578 L 34.929688 20.267578 C 35.426632 20.267578 35.675781 19.967983 35.675781 19.367188 C 35.675781 18.809303 35.426631 18.529297 34.929688 18.529297 L 25.080078 18.529297 z " /></g></svg>
