<?xml version="1.0" encoding="UTF-8" standalone="no"?>
<svg
   version="1.1"
   style="enable-background:new 0 0 512 512;"
   xml:space="preserve"
   inkscape:version="1.1.1 (3bf5ae0d25, 2021-09-20)"
   sodipodi:docname="icon-sound.svg"
   width="512"
   height="512"
   id="svg43"
   xmlns:inkscape="http://www.inkscape.org/namespaces/inkscape"
   xmlns:sodipodi="http://sodipodi.sourceforge.net/DTD/sodipodi-0.dtd"
   xmlns="http://www.w3.org/2000/svg"
   xmlns:svg="http://www.w3.org/2000/svg"
   xmlns:rdf="http://www.w3.org/1999/02/22-rdf-syntax-ns#"
   xmlns:cc="http://creativecommons.org/ns#"
   xmlns:dc="http://purl.org/dc/elements/1.1/"><path
     d="m 355.34986,175.4077 c 11.3402,35.12172 13.21764,60.54899 13.96962,84.2159 0.0185,0.54619 0.0366,1.09241 0.0556,1.65515 0.85863,30.17151 -6.91623,62.84542 -12.64806,79.48246 -5.37828,17.78609 -5.88608,19.15003 -8.27799,25.02071 -4.24807,5.95906 -6.3021,8.15146 -12.9789,11.35411 -8.34639,1.45167 -15.67758,0.71082 -22.05025,-3.52324 -8.15172,-6.3978 -8.84375,-9.04763 -10.92875,-14.05903 -0.90418,-3.7934 -1.07115,-11.52366 1.18721,-19.68948 0.46632,-1.3755 2.43042,-8.67403 4.30468,-15.84048 1.96264,-7.69678 0.60592,0.34 7.74308,-36.57707 3.88716,-38.91707 -2.86528,-64.22135 -13.80806,-100.3773 -2.39066,-5.26342 -2.92645,-16.01596 -0.27471,-21.33166 3.63003,-5.71921 8.33266,-10.24533 15.37064,-13.04327 6.04199,-1.54219 17.99394,-3.87722 25.03914,3.2229 5.1707,4.72562 9.02898,6.96941 13.29675,19.4903 z"
     fill="#000000"
     id="path840"
     style="fill:#ffffff;stroke-width:0.750744"
     sodipodi:nodetypes="cccccccccccccccc" /><path
     d="m 421.02222,112.77065 c 9.70029,5.57712 11.50234,12.47065 14.45085,20.20168 2.94851,7.73103 4.83293,13.32692 10.45277,28.6113 5.87516,17.65937 8.02051,22.84194 12.25292,46.36576 0.12615,0.80878 0.2523,1.61755 0.38227,2.45083 0.10203,0.65574 0.10203,0.65574 0.20607,1.32471 0.23526,1.46188 0.49055,2.92032 0.74962,4.37913 8.99239,56.55562 -2.63794,116.26296 -15.73012,155.57643 -11.68789,36.31347 -14.14458,35.01445 -25.71301,41.14432 -5.9743,2.57381 -12.70311,2.25781 -19.20491,1.37769 -4.9291,-1.47367 -7.59602,-3.17895 -11.99548,-6.89491 -2.67801,-2.60429 -4.58932,-5.48475 -5.10361,-5.97929 -2.41586,-4.02283 -3.43831,-8.88986 -3.43831,-15.64027 0.5666,-6.694 1.00614,-13.25387 3.97498,-19.3756 29.57811,-63.74709 27.06244,-132.91138 0.58461,-210.63708 -3.66631,-8.75385 -5.25408,-22.08052 -1.45006,-31.27825 3.45981,-6.20275 8.84676,-11.00486 16.15324,-13.6163 7.40115,-1.70194 16.70974,-1.2377 23.42817,1.98985 z"
     fill="#000000"
     id="path838"
     style="fill:#ffffff;stroke-width:0.713973"
     sodipodi:nodetypes="cccccccccccccccccc" /><path
     d="m 336.29005,157.3505 c 11.50891,6.65525 14.18316,21.26954 17.4464,33.18895 5.80365,21.77299 8.95761,44.34581 9.53259,66.8758 0.0141,0.51996 0.028,1.03993 0.0425,1.57564 0.65652,28.72212 -4.25137,56.92599 -12.85273,84.25278 -0.20911,0.67188 -0.4182,1.34376 -0.63364,2.03599 -0.64553,2.06042 -1.30414,4.11612 -1.96844,6.17055 -0.1948,0.61507 -0.38961,1.23013 -0.59031,1.86383 -2.40322,7.25906 -5.58519,14.09771 -12.38003,18.07206 -5.67224,1.63437 -10.56821,0.71879 -15.81261,-1.8815 -5.21925,-3.14547 -9.33032,-6.63564 -11.76937,-12.28979 -1.16444,-7.10307 -0.008,-13.36815 1.92152,-20.21612 0.35656,-1.30943 0.70944,-2.61982 1.0621,-3.93032 0.23733,-0.88123 0.47582,-1.76214 0.71551,-2.64273 1.1222,-4.13775 2.10073,-8.3053 3.06626,-12.48214 0.97308,-4.17472 2.02514,-8.21802 3.48278,-12.24977 2.07851,-5.83326 2.89169,-11.93453 3.82617,-18.0375 0.25708,-1.418 0.25708,-1.68317 0.49984,-3.91406 0.17578,-1.3848 0.26453,-1.78381 0.35775,-3.43366 0.0343,-1.50575 0.16621,-2.92611 0.34777,-4.41853 3.41776,-29.53358 -4.36949,-64.23327 -14.83932,-91.75062 -1.82796,-5.01057 -2.50798,-10.5346 -0.48039,-15.59494 2.77561,-5.44447 7.91419,-9.12086 13.2956,-11.78439 4.61985,-1.46811 11.213,-1.23683 15.73004,0.59047 z"
     fill="#000000"
     id="path1737"
     style="fill:#000000;stroke-width:0.64051"
     sodipodi:nodetypes="sccccccccccccccccccccccss" /><path
     d="m 272.51296,111.27461 c 0.0625,1.73086 0.0951,3.44283 0.0913,5.17321 l 0.004,1.54522 c 0.004,1.71028 0.004,3.42054 0.004,5.13082 0.002,1.23807 0.004,2.47612 0.007,3.71419 0.006,3.40381 0.008,6.80758 0.0111,10.21138 0.002,3.67076 0.008,7.34148 0.0151,11.01223 0.0134,8.86663 0.0203,17.73324 0.0265,26.5999 0.002,4.17778 0.006,8.35557 0.009,12.53334 0.0115,13.89254 0.0215,27.78509 0.0265,41.67763 9.9e-4,3.60465 0.002,7.2093 0.004,10.81395 l 5.1e-4,1.35701 c 0.005,14.95695 0.0227,29.91384 0.0455,44.87077 0.0225,14.89906 0.0348,29.7981 0.0369,44.69717 9.9e-4,8.36206 0.007,16.72405 0.0249,25.08608 0.0147,7.12351 0.0202,14.24695 0.0136,21.37048 -0.003,3.63124 -0.002,7.26236 0.0113,10.89358 0.0119,3.3319 0.0111,6.66355 6.7e-4,9.99546 -9.9e-4,1.19792 9.8e-4,2.39589 0.008,3.59378 0.0855,13.447 -7.14775,27.68224 -14.42895,33.16415 -5.68126,5.15983 -12.10539,7.55874 -19.37792,9.65179 l -1.34327,0.40548 c -11.67562,3.52154 -23.44477,2.71479 -34.31308,-2.95335 -11.54324,-6.67497 -13.35743,-9.41898 -22.57986,-17.84579 -1.46825,-1.68479 -2.97861,-3.32951 -4.49215,-4.97406 -3.37894,-3.68996 -6.70345,-7.41681 -9.9429,-11.22868 -4.08451,-4.79472 -8.27417,-9.45859 -12.6065,-14.03338 -2.41506,-2.5512 -4.76442,-5.14206 -7.06128,-7.79958 -1.46061,-1.63062 -3.02771,-3.14433 -4.59519,-4.67247 -1.26952,-1.28839 -2.44327,-2.63252 -3.61923,-4.00569 -4.30454,-4.91895 -8.1686,-10.0474 -14.81841,-10.90111 l -4.91759,-0.41668 c -3.95729,0.14175 -10.16417,0.32794 -16.37236,0.49463 -1.37182,0.0386 -2.743497,0.0829 -4.115171,0.12758 -9.471106,0.29365 -17.125453,-0.11987 -25.905578,-4.00358 l -1.776394,-0.76464 c -4.323212,-2.1284 -7.745973,-5.37645 -11.158184,-8.71782 l -1.600891,-1.56632 C 47.251179,340.51668 45.49453,328.94052 45.561242,314.32985 c 0,-1.28279 -0.0067,-2.56555 -0.0074,-3.84833 -0.0067,-3.4565 0,-6.91284 0.0088,-10.36933 0.0074,-3.63191 0.0067,-7.26381 0.0067,-10.89572 -5.43e-4,-6.09535 0.0067,-12.19065 0.01973,-18.28599 0.01429,-7.03085 0.01702,-14.06162 0.01226,-21.09248 -0.0067,-6.78663 0,-13.57322 0.0074,-20.35985 0.0067,-2.87814 0.0067,-5.75625 0,-8.63437 0,-3.39245 0.0067,-6.78483 0.01497,-10.17724 v -3.71863 c -0.01905,-14.86868 2.530003,-25.6585 12.504809,-37.0111 9.947641,-9.65032 21.372975,-12.89593 34.656035,-12.90628 1.908048,-0.0111 3.816026,-0.0257 5.724014,-0.0396 2.9936,-0.0205 5.98708,-0.036 8.98075,-0.0348 2.43347,5.5e-4 4.8664,-0.0154 7.29973,-0.042 1.36256,-0.009 2.72531,-0.003 4.08792,0.004 6.33829,-0.0837 12.26677,-1.41474 17.07067,-5.65482 l 1.35363,-1.63779 1.52374,-1.79648 1.41207,-1.71712 c 0.76213,-0.87809 1.52777,-1.75317 2.29759,-2.62461 l 1.1541,-1.31759 c 2.56681,-2.88467 5.19943,-5.7103 7.82218,-8.54454 1.57726,-1.70554 3.15052,-3.4147 4.72416,-5.12355 0.62489,-0.67822 1.24982,-1.35642 1.87475,-2.0346 1.23964,-1.34546 2.4788,-2.69129 3.71764,-4.03746 6.92959,-7.52882 13.89106,-15.02711 20.89901,-22.48384 1.64561,-1.751395 3.28686,-3.506701 4.92492,-5.265088 1.98503,-2.130064 3.97976,-4.250696 5.98164,-6.365076 0.96307,-1.021271 1.91535,-2.051699 2.86641,-3.083185 12.48043,-10.508085 36.90033,-11.544359 53.5075,-1.918727 7.59155,5.206215 15.91278,9.067733 22.50599,27.960956 z"
     fill="#000000"
     id="path836"
     sodipodi:nodetypes="cccccccccsssccsccccccccccccccccccccccccccccccccccccccccccccccccccccccc"
     style="fill:#ffffff;stroke-width:0.67904" /><path
     d="m 251.1722,92.79154 c 8.85658,6.73316 13.19296,16.0686 14.73924,26.91395 0.0589,1.63679 0.0895,3.25572 0.086,4.89206 l 0.004,1.46125 c 0.004,1.61733 0.004,3.23465 0.004,4.85199 0.002,1.17078 0.004,2.34156 0.007,3.51234 0.006,3.21883 0.008,6.43763 0.0105,9.65645 0.002,3.47127 0.008,6.94251 0.0142,10.41377 0.0127,8.38478 0.0191,16.76954 0.0248,25.15433 0.002,3.95074 0.006,7.90149 0.009,11.85222 0.0109,13.13756 0.0202,26.27512 0.0249,39.41267 10e-4,3.40876 0.002,6.81752 0.004,10.22628 l 4.7e-4,1.28326 c 0.005,14.14411 0.0213,28.28818 0.0427,42.43228 0.0212,14.08938 0.0328,28.17873 0.0347,42.26812 0.001,7.90762 0.007,15.81518 0.0234,23.72278 0.0139,6.73639 0.019,13.4727 0.0128,20.2091 -0.003,3.43391 -0.002,6.86769 0.0107,10.30157 0.0113,3.15083 0.0106,6.30142 6.4e-4,9.45226 -0.001,1.13283 10e-4,2.26569 0.008,3.39849 0.0805,12.71622 -1.73539,25.17483 -10.91454,34.70524 -5.34531,4.87942 -11.38955,7.14796 -18.23203,9.12727 l -1.26383,0.38344 c -10.98518,3.33016 -20.72781,2.56725 -30.95342,-2.79285 -9.69638,-5.3092 -17.2246,-13.08635 -24.40476,-21.38956 -1.38142,-1.59323 -2.80247,-3.14856 -4.2265,-4.70374 -3.17914,-3.48943 -6.30706,-7.01374 -9.35495,-10.61846 -3.84297,-4.53415 -7.78487,-8.94457 -11.86102,-13.27074 -2.27225,-2.41255 -4.48268,-4.86262 -6.64373,-7.37572 -1.37423,-1.54199 -2.84866,-2.97344 -4.32345,-4.41853 -1.19444,-1.21838 -2.29877,-2.48946 -3.40521,-3.78801 -4.04998,-4.65163 -7.85187,-8.8327 -14.10844,-9.64001 l -4.62679,-0.39403 c -3.72328,0.13404 -9.56314,0.31011 -15.40421,0.46775 -1.29069,0.0365 -2.58126,0.0783 -3.87182,0.12064 -8.91104,0.27769 -16.778047,0.38816 -25.038967,-3.2845 l -1.671348,-0.72308 c -4.067562,-2.01274 -7.287921,-5.08427 -10.498353,-8.24406 l -1.506224,-1.48119 C 53.971149,336.48946 52.318376,325.5424 52.381146,311.72574 c 0,-1.21307 -0.0064,-2.42613 -0.007,-3.63919 -0.0064,-3.26866 0,-6.53717 0.0083,-9.80581 0.007,-3.43454 0.0064,-6.86907 0.0064,-10.3036 -5.13e-4,-5.7641 0.0064,-11.52816 0.01857,-17.29224 0.01345,-6.64876 0.01601,-13.29744 0.01153,-19.94621 -0.0064,-6.41782 0,-12.8356 0.007,-19.25341 0.0064,-2.72172 0.0064,-5.44342 0,-8.16513 0,-3.20809 0.0064,-6.41611 0.01409,-9.62417 0,-1.17218 0,-2.34436 0,-3.51653 -0.01793,-14.06065 2.380394,-24.26411 11.765347,-34.99974 9.359395,-9.12588 22.104979,-11.35927 34.602557,-11.36906 1.79522,-0.0105 3.59037,-0.0243 5.38553,-0.0375 2.81658,-0.0194 5.63304,-0.034 8.44968,-0.0329 2.28957,5.2e-4 4.57863,-0.0146 6.86807,-0.0397 1.28198,-0.009 2.56416,-0.003 3.8462,0.004 5.96347,-0.0791 10.37711,-1.17068 14.89693,-5.18033 l 1.27358,-1.54879 1.43364,-1.69885 1.32856,-1.6238 c 0.71706,-0.83037 1.43743,-1.6579 2.16173,-2.48198 l 1.08585,-1.24599 c 2.41503,-2.7279 4.89197,-5.39997 7.35963,-8.08019 1.48398,-1.61285 2.96423,-3.22912 4.44479,-4.84511 0.58795,-0.64135 1.17592,-1.2827 1.7639,-1.92403 1.16633,-1.27233 2.33222,-2.54503 3.49779,-3.81804 6.51982,-7.11967 13.06963,-14.21046 19.66317,-21.26196 1.54829,-1.65622 3.09249,-3.31613 4.6337,-4.97896 1.86763,-2.01431 3.74441,-4.0197 5.62791,-6.01917 0.90612,-0.96577 1.80209,-1.9402 2.69691,-2.91563 15.73416,-16.623818 37.8784,-15.263399 55.94459,-3.29012 z m -30.90088,42.41584 -1.01707,1.08383 -1.12965,1.20347 -1.21222,1.30604 -1.24224,1.33355 c -2.72065,2.94304 -5.2795,5.97468 -7.77995,9.10727 -2.683,3.20833 -5.58384,6.21496 -8.45173,9.25738 -1.84605,1.96037 -3.62833,3.96566 -5.3868,6.00479 -2.16838,2.46811 -4.41097,4.86899 -6.64623,7.27641 -1.40051,1.50851 -2.79923,3.01864 -4.19662,4.53003 -5.2587,5.67465 -10.6037,11.25775 -16.05046,16.75226 -0.89246,0.90318 -1.78146,1.80982 -2.66712,2.71966 -1.31012,1.34536 -2.63063,2.67973 -3.95379,4.01225 l -1.17315,1.21717 c -15.39106,15.31731 -42.27727,6.85219 -60.626095,7.08446 v 107.60577 l 37.149605,0.6405 c 19.44299,2.43037 19.44299,2.43037 27.78465,10.89869 l 1.27397,1.27301 c 0.88114,0.88263 1.75995,1.76761 2.63648,2.65481 1.3247,1.3398 2.65771,2.67087 3.9921,4.001 4.40384,4.41339 8.60221,8.84247 12.35109,13.83853 3.57016,4.47303 7.28011,8.75827 11.16891,12.95283 1.7045,1.84742 3.36234,3.72823 5.00899,5.62699 1.8069,2.06619 3.65295,4.09696 5.49438,6.13238 1.15187,1.28703 2.27235,2.59222 3.38769,3.91062 2.38774,2.7459 4.95909,5.30946 7.52601,7.88628 l 1.31886,1.32779 1.23817,1.23426 1.12309,1.12089 c 0.7639,0.87233 0.7639,0.87233 1.52403,0.80064 V 134.43723 c -0.74901,-0.0738 -0.74901,-0.0738 -1.4449,0.77015 z"
     fill="#000000"
     id="path1813"
     sodipodi:nodetypes="ccccccccccsssccsccccccccccccccccccccccccccccccccccccccccccccccccccccccccccccccccccccccccccccccccccccccc"
     style="stroke-width:0.64051;fill:#000000" /><path
     d="m 419.63397,119.06499 c 8.12662,5.35763 10.5989,15.10196 13.61085,23.85901 0.26904,0.77609 0.26904,0.77609 0.5435,1.56788 1.27795,3.68806 2.5358,7.3826 3.77995,11.0822 0.22948,0.68188 0.22948,0.68188 0.46361,1.37755 5.89033,17.56405 11.75182,36.11177 14.2281,54.50699 0.10568,0.77695 0.21136,1.55389 0.32025,2.35438 0.0855,0.62993 0.0855,0.62993 0.17264,1.27258 0.1971,1.40434 0.41097,2.80539 0.62801,4.20679 7.96138,52.04834 -0.57216,104.48321 -18.37465,161.10092 -0.24141,0.74959 -0.48281,1.49918 -0.73152,2.27149 -3.40249,10.39919 -6.97316,18.30096 -16.66486,24.18959 -5.0051,2.47251 -11.10366,2.56686 -16.55068,1.72138 -4.12946,-1.41568 -7.41805,-3.71606 -10.24817,-7.04562 -0.42233,-0.46567 -0.42233,-0.46567 -0.85318,-0.94075 -4.48384,-5.06531 -4.2709,-10.70145 -4.2709,-17.1862 0.47468,-6.43055 2.94211,-11.89523 5.42932,-17.77604 25.84921,-61.35841 23.7815,-130.19883 -1.82333,-208.58814 -3.07153,-8.40934 -5.7921,-17.96937 -2.6052,-26.80512 2.89853,-5.95864 8.16023,-10.69185 14.28138,-13.20051 6.20047,-1.63496 13.03637,-1.06891 18.66488,2.03162 z"
     fill="#000000"
     id="path1775"
     style="stroke-width:0.64051;fill:#000000" /><rect
     id="backgroundrect"
     width="511"
     height="510.51233"
     x="3.313553e-07"
     y="0.48767093"
     fill="none"
     stroke="none"
     style="stroke-width:3.81627" /><metadata
     id="metadata4211"><rdf:RDF><cc:Work
         rdf:about=""><dc:format>image/svg+xml</dc:format><dc:type
           rdf:resource="http://purl.org/dc/dcmitype/StillImage" /></cc:Work></rdf:RDF></metadata><defs
     id="defs4209" /><sodipodi:namedview
     pagecolor="#ffffff"
     bordercolor="#666666"
     borderopacity="1"
     objecttolerance="10"
     gridtolerance="10"
     guidetolerance="10"
     inkscape:pageopacity="0"
     inkscape:pageshadow="2"
     inkscape:window-width="5040"
     inkscape:window-height="979"
     id="namedview4207"
     showgrid="false"
     inkscape:zoom="1.4142136"
     inkscape:cx="6.7175144"
     inkscape:cy="206.12163"
     inkscape:window-x="-8"
     inkscape:window-y="-8"
     inkscape:window-maximized="1"
     inkscape:current-layer="svg43"
     inkscape:pagecheckerboard="0" /><style
     type="text/css"
     id="style4189">
	.st0{fill:none;stroke:#000000;stroke-width:18;stroke-miterlimit:10;}
	.st1{fill:none;stroke:#000000;stroke-width:18;stroke-linecap:round;stroke-miterlimit:10;}
	.st2{fill:none;stroke:#000000;stroke-width:19;stroke-linecap:round;stroke-miterlimit:10;}
</style></svg>
