<?xml version="1.0" encoding="UTF-8"?>
<svg version="1.1" width="512" height="512" viewBox="-16 -16 64 64" xmlns="http://www.w3.org/2000/svg">
 <g stroke="#fff" stroke-linecap="round" stroke-linejoin="round">
  <g stroke-width="2">
   <path d="m14 5 1 2"/>
   <path d="m16 5-1 2"/>
   <path d="m15 8v-1"/>
  </g>
  <g stroke-width="3">
   <path d="m15 11v9" fill="#00d400"/>
   <path d="m25 23-10-3"/>
   <path d="m8 25 7-5"/>
  </g>
  <g fill="none" stroke-width="2">
   <path d="m28 23 2-0.0511-2 3.0011 2-0.0011"/>
   <path d="m3 24 2 3"/>
   <path d="m3 27 2-3"/>
  </g>
 </g>
 <g fill="none" stroke="#262626" stroke-linecap="round" stroke-linejoin="round">
  <path d="m15 11v9" stroke-width="2"/>
  <path d="m25 23-10-3" stroke-width="2"/>
  <g>
   <path d="m14 5 1 2"/>
   <path d="m16 5-1 2"/>
   <path d="m15 8v-1"/>
  </g>
  <path d="m8 25 7-5" stroke-width="2"/>
  <g>
   <path d="m28 23 2-0.0511-2 3.0011 2-0.0011"/>
   <path d="m3 24 2 3"/>
   <path d="m3 27 2-3"/>
  </g>
 </g>
</svg>
