<?xml version="1.0" encoding="UTF-8" standalone="no"?>
<svg
   version="1.0"
   width="50pt"
   height="50pt"
   viewBox="0 0 50 50"
   preserveAspectRatio="xMidYMid"
   id="svg10"
   sodipodi:docname="avatar-a.svg"
   inkscape:version="1.3.2 (091e20ef0f, 2023-11-25, custom)"
   xmlns:inkscape="http://www.inkscape.org/namespaces/inkscape"
   xmlns:sodipodi="http://sodipodi.sourceforge.net/DTD/sodipodi-0.dtd"
   xmlns="http://www.w3.org/2000/svg"
   xmlns:svg="http://www.w3.org/2000/svg">
  <defs
     id="defs10" />
  <sodipodi:namedview
     id="namedview10"
     pagecolor="#ffffff"
     bordercolor="#000000"
     borderopacity="0.25"
     inkscape:showpageshadow="2"
     inkscape:pageopacity="0.0"
     inkscape:pagecheckerboard="0"
     inkscape:deskcolor="#d1d1d1"
     inkscape:document-units="pt"
     inkscape:zoom="13.869048"
     inkscape:cx="37.709871"
     inkscape:cy="31.400858"
     inkscape:window-width="2560"
     inkscape:window-height="1363"
     inkscape:window-x="0"
     inkscape:window-y="0"
     inkscape:window-maximized="1"
     inkscape:current-layer="svg10" />
  <g
     transform="matrix(0.01,0,0,-0.01,-0.12203826,50.393861)"
     fill="#000000"
     stroke="none"
     id="g10">
    <path
       d="m 1057,4769 c -92,-22 -207,-102 -272,-190 -142,-193 -118,-468 57,-635 78,-75 135,-108 218,-130 86,-22 223,-15 302,15 124,48 242,166 288,289 30,79 37,209 17,289 -45,174 -181,316 -342,358 -64,16 -206,19 -268,4 z"
       id="path1" />
    <path
       d="m 2911,4442 c -121,-61 -136,-232 -27,-314 26,-19 43,-23 106,-23 63,0 80,4 108,23 45,32 72,90 72,152 0,57 -15,93 -57,132 -53,50 -138,63 -202,30 z"
       id="path2" />
    <path
       d="m 2201,4397 c -90,-46 -86,-175 7,-214 70,-29 149,18 159,95 12,91 -85,161 -166,119 z"
       id="path3" />
    <path
       d="m 3716,4094 c -65,-20 -146,-101 -169,-168 -47,-139 14,-290 141,-352 53,-26 158,-30 221,-9 101,33 181,147 181,257 0,199 -181,331 -374,272 z"
       id="path4" />
    <path
       d="m 796,3734 c -153,-37 -299,-182 -346,-344 -15,-54 -19,-110 -23,-340 -2,-151 -2,-387 2,-525 l 6,-250 35,-17 c 32,-17 88,-18 715,-18 627,0 683,1 715,18 l 35,17 6,245 c 4,135 5,371 2,525 -5,311 -14,364 -74,460 -74,118 -183,202 -300,230 -89,21 -685,20 -773,-1 z"
       id="path5" />
    <path
       d="m 4103,3030 c -17,-4 -83,-44 -147,-89 l -116,-82 -121,85 c -109,77 -127,86 -166,86 -65,0 -124,-37 -145,-90 -12,-32 -58,-502 -58,-595 1,-130 38,-228 123,-322 112,-123 226,-169 399,-161 91,4 111,8 173,38 123,58 228,177 266,301 26,82 24,195 -5,496 -21,210 -27,246 -46,272 -35,50 -96,73 -157,61 z"
       id="path6" />
    <path
       d="m 855,1850 c -52,-20 -127,-85 -150,-130 -39,-75 -35,-200 9,-275 53,-89 134,-134 241,-135 238,0 366,261 221,452 -71,93 -212,132 -321,88 z"
       id="path7" />
    <path
       d="m 3463,1795 c -173,-38 -325,-194 -368,-376 -12,-51 -15,-138 -15,-417 V 649 l -49,26 c -76,42 -117,80 -145,137 -35,70 -33,105 14,210 51,112 64,174 56,258 -14,151 -126,364 -214,406 -82,38 -176,-41 -151,-128 4,-14 26,-51 48,-81 55,-72 91,-163 91,-228 0,-39 -10,-74 -41,-141 -52,-117 -64,-181 -49,-267 15,-93 60,-179 130,-250 61,-62 179,-138 261,-168 39,-13 49,-22 49,-39 0,-36 11,-54 41,-69 24,-13 131,-15 712,-15 458,0 694,4 715,11 18,6 35,22 42,38 8,20 10,170 8,542 -4,497 -4,516 -25,571 -59,157 -165,266 -312,321 -52,20 -79,21 -396,24 -262,2 -354,-1 -402,-12 z"
       id="path8" />
    <path
       d="m 1509,1120 c -42,-12 -84,-48 -109,-92 -32,-56 -25,-141 14,-193 48,-63 142,-91 213,-64 35,13 80,55 99,92 16,30 21,100 9,138 -28,91 -134,147 -226,119 z"
       id="path9" />
    <path
       d="m 2260,763 c -59,-53 -48,-153 20,-188 47,-24 94,-19 133,15 56,48 58,118 5,170 -25,25 -38,30 -79,30 -39,0 -55,-5 -79,-27 z"
       id="path10" />
  </g>
</svg>
