<?xml version="1.0" encoding="UTF-8" standalone="no"?>
<svg
   height="36"
   viewBox="0 -960 640 720"
   width="32"
   fill="#ea3323"
   version="1.1"
   id="svg1"
   sodipodi:docname="delete.svg"
   inkscape:version="1.4.2 (ebf0e940d0, 2025-05-08)"
   xmlns:inkscape="http://www.inkscape.org/namespaces/inkscape"
   xmlns:sodipodi="http://sodipodi.sourceforge.net/DTD/sodipodi-0.dtd"
   xmlns="http://www.w3.org/2000/svg"
   xmlns:svg="http://www.w3.org/2000/svg">
  <defs
     id="defs1" />
  <sodipodi:namedview
     id="namedview1"
     pagecolor="#ffffff"
     bordercolor="#000000"
     borderopacity="0.25"
     inkscape:showpageshadow="2"
     inkscape:pageopacity="0.0"
     inkscape:pagecheckerboard="0"
     inkscape:deskcolor="#d1d1d1"
     inkscape:zoom="25.1875"
     inkscape:cx="15.980149"
     inkscape:cy="18.004963"
     inkscape:window-width="2560"
     inkscape:window-height="1412"
     inkscape:window-x="0"
     inkscape:window-y="0"
     inkscape:window-maximized="1"
     inkscape:current-layer="svg1" />
  <path
     d="m 201,-419 119,-121 120,121 47,-48 -119,-121 119,-121 -47,-48 -120,121 -119,-121 -48,48 120,121 -120,121 z m -100,179 q -24,0 -42,-18 -18,-18 -18,-42 V -870 H 0 v -60 h 188 v -30 h 264 v 30 h 188 v 60 h -41 v 570 q 0,24 -18,42 -18,18 -42,18 z M 539,-870 H 101 v 570 h 438 z m -438,0 v 570 z"
     id="path1" />
</svg>
