<?xml version="1.0" encoding="UTF-8" standalone="no"?>
<svg
   height="40"
   viewBox="0 -960 640 800"
   width="32"
   fill="#1f1f1f"
   version="1.1"
   id="svg1"
   sodipodi:docname="notifications_64dp_1F1F1F_FILL0_wght400_GRAD0_opsz48.svg"
   inkscape:version="1.4.2 (ebf0e940d0, 2025-05-08)"
   xmlns:inkscape="http://www.inkscape.org/namespaces/inkscape"
   xmlns:sodipodi="http://sodipodi.sourceforge.net/DTD/sodipodi-0.dtd"
   xmlns="http://www.w3.org/2000/svg"
   xmlns:svg="http://www.w3.org/2000/svg">
  <defs
     id="defs1" />
  <sodipodi:namedview
     id="namedview1"
     pagecolor="#ffffff"
     bordercolor="#000000"
     borderopacity="0.25"
     inkscape:showpageshadow="2"
     inkscape:pageopacity="0.0"
     inkscape:pagecheckerboard="0"
     inkscape:deskcolor="#d1d1d1"
     inkscape:zoom="24.270833"
     inkscape:cx="16.006867"
     inkscape:cy="20.003433"
     inkscape:window-width="2560"
     inkscape:window-height="1368"
     inkscape:window-x="0"
     inkscape:window-y="0"
     inkscape:window-maximized="1"
     inkscape:current-layer="svg1" />
  <path
     d="m 0,-280 v -60 h 80 v -304 q 0,-84 49.5,-150.5 Q 179,-861 260,-878 v -22 q 0,-25 17.5,-42.5 17.5,-17.5 42.5,-17.5 25,0 42.5,17.5 17.5,17.5 17.5,42.5 v 22 q 81,17 130.5,83.5 Q 560,-728 560,-644 v 304 h 80 v 60 z m 320,-302 z m 0,422 q -33,0 -56.5,-23.5 Q 240,-207 240,-240 h 160 q 0,33 -23.5,56.5 Q 353,-160 320,-160 Z M 140,-340 h 360 v -304 q 0,-75 -52.5,-127.5 Q 395,-824 320,-824 245,-824 192.5,-771.5 140,-719 140,-644 Z"
     id="path1"
     style="fill:#ffffff" />
</svg>
