<?xml version="1.0" encoding="UTF-8" standalone="no"?>
<svg
   height="40"
   viewBox="0 -960 650.99998 800"
   width="32.549999"
   fill="#ffffff"
   version="1.1"
   id="svg1"
   sodipodi:docname="notification-bell-unread.svg"
   inkscape:version="1.4.2 (ebf0e940d0, 2025-05-08)"
   xmlns:inkscape="http://www.inkscape.org/namespaces/inkscape"
   xmlns:sodipodi="http://sodipodi.sourceforge.net/DTD/sodipodi-0.dtd"
   xmlns="http://www.w3.org/2000/svg"
   xmlns:svg="http://www.w3.org/2000/svg">
  <defs
     id="defs1" />
  <sodipodi:namedview
     id="namedview1"
     pagecolor="#ffffff"
     bordercolor="#000000"
     borderopacity="0.25"
     inkscape:showpageshadow="2"
     inkscape:pageopacity="0.0"
     inkscape:pagecheckerboard="0"
     inkscape:deskcolor="#d1d1d1"
     showguides="true"
     inkscape:zoom="25.1875"
     inkscape:cx="9.191067"
     inkscape:cy="24.198511"
     inkscape:window-width="2560"
     inkscape:window-height="1412"
     inkscape:window-x="0"
     inkscape:window-y="0"
     inkscape:window-maximized="1"
     inkscape:current-layer="svg1" />
  <path
     d="m 320,-160 c -22,0 -40.83333,-7.83333 -56.5,-23.5 C 247.83333,-199.16667 240,-218 240,-240 h 160 c 0,22 -7.83333,40.83333 -23.5,56.5 C 360.83333,-167.83333 342,-160 320,-160 Z M 0,-280 v -60 h 80 v -304 c 0,-56 16.5,-106.16667 49.5,-150.5 33,-44.33333 76.5,-72.16667 130.5,-83.5 v -22 c 0,-16.66667 5.83333,-30.83333 17.5,-42.5 11.66667,-11.66667 25.83333,-17.5 42.5,-17.5 15.28,0 28.26667,4.83333 38.96,14.5 10.69333,9.66667 17.37333,21.5 20.04,35.5 -8,13.33333 -14.33333,27.5 -19,42.5 -4.66667,15 -7.66667,30.5 -9,46.5 -5.33333,-1.33333 -10.42667,-2.16667 -15.28,-2.5 -4.86,-0.33333 -10.1,-0.5 -15.72,-0.5 -50,0 -92.5,17.5 -127.5,52.5 -35,35 -52.5,77.5 -52.5,127.5 v 304 h 360 v -284 c 10,2 20,3.33333 30,4 10,0.66667 20,0.33333 30,-1 v 281 h 80 v 60 z"
     id="path1"
     style="display:inline;fill:#ffffff"
     sodipodi:nodetypes="ssccsscccsscsssscsccssscccsccccc"
     sodipodi:insensitive="true" />
  <path
     d="m 540.88,-700 c -30.58667,0 -56.54667,-10.70667 -77.88,-32.12 -21.33333,-21.41333 -32,-47.41333 -32,-78 0,-30.58667 10.70667,-56.54667 32.12,-77.88 21.41333,-21.33333 47.41333,-32 78,-32 30.58667,0 56.54667,10.70667 77.88,32.12 21.33333,21.41333 32,47.41333 32,78 0,30.58667 -10.70667,56.54667 -32.12,77.88 -21.41333,21.33333 -47.41333,32 -78,32 z"
     id="path2"
     style="display:inline;opacity:1;fill:#ff0000"
     sodipodi:nodetypes="sssssssss"
     sodipodi:insensitive="true" />
</svg>
