<?xml version="1.0" encoding="UTF-8" standalone="no"?>
<!-- Generator: Adobe Illustrator 19.2.0, SVG Export Plug-In . SVG Version: 6.00 Build 0)  -->

<svg
   version="1.1"
   id="Layer_1"
   x="0px"
   y="0px"
   viewBox="0 0 512 512"
   style="enable-background:new 0 0 512 512;"
   xml:space="preserve"
   sodipodi:docname="script.svg"
   inkscape:version="1.1.1 (3bf5ae0d25, 2021-09-20)"
   xmlns:inkscape="http://www.inkscape.org/namespaces/inkscape"
   xmlns:sodipodi="http://sodipodi.sourceforge.net/DTD/sodipodi-0.dtd"
   xmlns="http://www.w3.org/2000/svg"
   xmlns:svg="http://www.w3.org/2000/svg"><defs
   id="defs29"><pattern
     patternUnits="userSpaceOnUse"
     width="30.420844"
     height="6.5893951"
     patternTransform="translate(9.076365,85.62981)"
     id="pattern181821"><text
       xml:space="preserve"
       style="font-style:normal;font-variant:normal;font-weight:bold;font-stretch:normal;font-size:8.76147px;line-height:1.25;font-family:Roboto;-inkscape-font-specification:'Roboto Bold';fill:#eaeaea;fill-opacity:1;stroke:none;stroke-width:0.219039"
       x="-0.31657657"
       y="6.3785896"
       id="text177288"
       transform="scale(0.98488846,1.0153434)"><tspan
         sodipodi:role="line"
         id="tspan177286"
         x="-0.31657657"
         y="6.3785896"
         style="font-style:normal;font-variant:normal;font-weight:bold;font-stretch:normal;font-family:Arial;-inkscape-font-specification:'Arial Bold';fill:#eaeaea;stroke-width:0.219039">SOUND</tspan></text></pattern><pattern
     patternUnits="userSpaceOnUse"
     width="30.420844"
     height="6.5893951"
     patternTransform="translate(9.0763649,35.629775)"
     id="pattern185125"><text
       xml:space="preserve"
       style="font-style:normal;font-variant:normal;font-weight:bold;font-stretch:normal;font-size:8.76147px;line-height:1.25;font-family:Roboto;-inkscape-font-specification:'Roboto Bold';fill:#000000;fill-opacity:1;stroke:none;stroke-width:0.219039"
       x="-0.31657654"
       y="6.3785896"
       id="text128632"
       transform="scale(0.98488846,1.0153434)"><tspan
         sodipodi:role="line"
         id="tspan128630"
         x="-0.31657654"
         y="6.3785896"
         style="font-style:normal;font-variant:normal;font-weight:bold;font-stretch:normal;font-family:Arial;-inkscape-font-specification:'Arial Bold';fill:#000000;stroke-width:0.219039">SOUND</tspan></text></pattern><pattern
     patternUnits="userSpaceOnUse"
     width="30.420844"
     height="6.5893951"
     patternTransform="translate(9.076365,135.62983)"
     id="pattern185150"><text
       xml:space="preserve"
       style="font-style:normal;font-variant:normal;font-weight:bold;font-stretch:normal;font-size:8.76147px;line-height:1.25;font-family:Roboto;-inkscape-font-specification:'Roboto Bold';opacity:0.47;fill:#eaeaea;fill-opacity:1;stroke:none;stroke-width:0.219039"
       x="-0.31657657"
       y="6.3785896"
       id="text177292"
       transform="scale(0.98488846,1.0153434)"><tspan
         sodipodi:role="line"
         id="tspan177290"
         x="-0.31657657"
         y="6.3785896"
         style="font-style:normal;font-variant:normal;font-weight:bold;font-stretch:normal;font-family:Arial;-inkscape-font-specification:'Arial Bold';fill:#eaeaea;stroke-width:0.219039">SOUND</tspan></text></pattern><pattern
     patternUnits="userSpaceOnUse"
     width="30.420844"
     height="6.5893951"
     patternTransform="translate(9.076365,85.62981)"
     id="pattern181821-2"><text
       xml:space="preserve"
       style="font-style:normal;font-variant:normal;font-weight:bold;font-stretch:normal;font-size:8.76147px;line-height:1.25;font-family:Roboto;-inkscape-font-specification:'Roboto Bold';fill:#eaeaea;fill-opacity:1;stroke:none;stroke-width:0.219039"
       x="-0.31657657"
       y="6.3785896"
       id="text177288-7"
       transform="scale(0.98488846,1.0153434)"><tspan
         sodipodi:role="line"
         id="tspan177286-1"
         x="-0.31657657"
         y="6.3785896"
         style="font-style:normal;font-variant:normal;font-weight:bold;font-stretch:normal;font-family:Arial;-inkscape-font-specification:'Arial Bold';fill:#eaeaea;stroke-width:0.219039">SOUND</tspan></text></pattern><pattern
     patternUnits="userSpaceOnUse"
     width="30.420844"
     height="6.5893951"
     patternTransform="translate(9.0763649,35.629775)"
     id="pattern185125-7"><text
       xml:space="preserve"
       style="font-style:normal;font-variant:normal;font-weight:bold;font-stretch:normal;font-size:8.76147px;line-height:1.25;font-family:Roboto;-inkscape-font-specification:'Roboto Bold';fill:#000000;fill-opacity:1;stroke:none;stroke-width:0.219039"
       x="-0.31657654"
       y="6.3785896"
       id="text128632-6"
       transform="scale(0.98488846,1.0153434)"><tspan
         sodipodi:role="line"
         id="tspan128630-3"
         x="-0.31657654"
         y="6.3785896"
         style="font-style:normal;font-variant:normal;font-weight:bold;font-stretch:normal;font-family:Arial;-inkscape-font-specification:'Arial Bold';fill:#000000;stroke-width:0.219039">SOUND</tspan></text></pattern><pattern
     patternUnits="userSpaceOnUse"
     width="30.420844"
     height="6.5893951"
     patternTransform="translate(9.076365,135.62983)"
     id="pattern185150-3"><text
       xml:space="preserve"
       style="font-style:normal;font-variant:normal;font-weight:bold;font-stretch:normal;font-size:8.76147px;line-height:1.25;font-family:Roboto;-inkscape-font-specification:'Roboto Bold';opacity:0.47;fill:#eaeaea;fill-opacity:1;stroke:none;stroke-width:0.219039"
       x="-0.31657657"
       y="6.3785896"
       id="text177292-4"
       transform="scale(0.98488846,1.0153434)"><tspan
         sodipodi:role="line"
         id="tspan177290-8"
         x="-0.31657657"
         y="6.3785896"
         style="font-style:normal;font-variant:normal;font-weight:bold;font-stretch:normal;font-family:Arial;-inkscape-font-specification:'Arial Bold';fill:#eaeaea;stroke-width:0.219039">SOUND</tspan></text></pattern><pattern
     patternUnits="userSpaceOnUse"
     width="30.420844"
     height="6.5893951"
     patternTransform="translate(9.076365,85.62981)"
     id="pattern181821-7"><text
       xml:space="preserve"
       style="font-style:normal;font-variant:normal;font-weight:bold;font-stretch:normal;font-size:8.76147px;line-height:1.25;font-family:Roboto;-inkscape-font-specification:'Roboto Bold';fill:#eaeaea;fill-opacity:1;stroke:none;stroke-width:0.219039"
       x="-0.31657657"
       y="6.3785896"
       id="text177288-1"
       transform="scale(0.98488846,1.0153434)"><tspan
         sodipodi:role="line"
         id="tspan177286-9"
         x="-0.31657657"
         y="6.3785896"
         style="font-style:normal;font-variant:normal;font-weight:bold;font-stretch:normal;font-family:Arial;-inkscape-font-specification:'Arial Bold';fill:#eaeaea;stroke-width:0.219039">SOUND</tspan></text></pattern><pattern
     patternUnits="userSpaceOnUse"
     width="30.420844"
     height="6.5893951"
     patternTransform="translate(9.0763649,35.629775)"
     id="pattern185125-1"><text
       xml:space="preserve"
       style="font-style:normal;font-variant:normal;font-weight:bold;font-stretch:normal;font-size:8.76147px;line-height:1.25;font-family:Roboto;-inkscape-font-specification:'Roboto Bold';fill:#000000;fill-opacity:1;stroke:none;stroke-width:0.219039"
       x="-0.31657654"
       y="6.3785896"
       id="text128632-9"
       transform="scale(0.98488846,1.0153434)"><tspan
         sodipodi:role="line"
         id="tspan128630-1"
         x="-0.31657654"
         y="6.3785896"
         style="font-style:normal;font-variant:normal;font-weight:bold;font-stretch:normal;font-family:Arial;-inkscape-font-specification:'Arial Bold';fill:#000000;stroke-width:0.219039">SOUND</tspan></text></pattern><pattern
     patternUnits="userSpaceOnUse"
     width="30.420844"
     height="6.5893951"
     patternTransform="translate(9.076365,135.62983)"
     id="pattern185150-8"><text
       xml:space="preserve"
       style="font-style:normal;font-variant:normal;font-weight:bold;font-stretch:normal;font-size:8.76147px;line-height:1.25;font-family:Roboto;-inkscape-font-specification:'Roboto Bold';opacity:0.47;fill:#eaeaea;fill-opacity:1;stroke:none;stroke-width:0.219039"
       x="-0.31657657"
       y="6.3785896"
       id="text177292-9"
       transform="scale(0.98488846,1.0153434)"><tspan
         sodipodi:role="line"
         id="tspan177290-3"
         x="-0.31657657"
         y="6.3785896"
         style="font-style:normal;font-variant:normal;font-weight:bold;font-stretch:normal;font-family:Arial;-inkscape-font-specification:'Arial Bold';fill:#eaeaea;stroke-width:0.219039">SOUND</tspan></text></pattern></defs><sodipodi:namedview
   id="namedview27"
   pagecolor="#ffffff"
   bordercolor="#666666"
   borderopacity="1.0"
   inkscape:pageshadow="2"
   inkscape:pageopacity="0.0"
   inkscape:pagecheckerboard="0"
   showgrid="false"
   inkscape:zoom="0.77539063"
   inkscape:cx="-36.110831"
   inkscape:cy="209.57179"
   inkscape:window-width="1663"
   inkscape:window-height="963"
   inkscape:window-x="1680"
   inkscape:window-y="8"
   inkscape:window-maximized="0"
   inkscape:current-layer="Layer_1" />
<style
   type="text/css"
   id="style2">
	.st0{fill:none;stroke:#000000;stroke-width:18;stroke-miterlimit:10;}
	.st1{fill:none;stroke:#000000;stroke-width:18;stroke-linecap:round;stroke-miterlimit:10;}
	.st2{fill:none;stroke:#000000;stroke-width:19;stroke-linecap:round;stroke-miterlimit:10;}
</style>

<style
   type="text/css"
   id="style2-4">
	.st0{opacity:0.9;}
	.st1{fill:#FFFFFF;}
	.st2{fill:#1E1E1E;}
	.st3{fill:#EAEAEA;}
	.st4{opacity:0.47;}
</style><style
   type="text/css"
   id="style2-8">
	.st0{opacity:0.9;}
	.st1{fill:#FFFFFF;}
	.st2{fill:#1E1E1E;}
	.st3{fill:#EAEAEA;}
	.st4{opacity:0.47;}
</style><style
   type="text/css"
   id="style2-45">
	.st0{opacity:0.9;}
	.st1{fill:#FFFFFF;}
	.st2{fill:#1E1E1E;}
	.st3{fill:#EAEAEA;}
	.st4{opacity:0.47;}
</style><path
   id="path24260-6"
   style="stroke-width:0.776268"
   d="M 212.57014,100.51098 V 206.0435 h -38.48368 a 52.592967,48.464508 0 0 0 -51.95048,-41.20309 v 19.24197 H 76.737591 v 15.7457 h 45.398389 v 13.46666 l 0.0531,13.05242 H 76.738915 v 15.7457 h 45.501945 l 0.0795,19.6562 a 52.592967,48.464508 0 0 0 51.25129,-38.30242 h 39.00161 v 92.14342 h -64.25173 l 2.12364,12.8192 0.69878,5.10186 c 0.94143,3.41407 2.36444,8.11352 4.24716,14.08826 1.88259,5.97462 4.22011,11.5309 7.04412,16.65213 12.23737,25.03678 29.41483,37.5514 51.53611,37.5514 h 105.92093 c 2.3533,0 4.46224,-0.98651 6.34482,-2.97822 1.8822,-1.99159 2.82296,-4.40628 2.82296,-7.25125 0,-7.39737 -3.04917,-11.11016 -9.16778,-11.11016 H 213.9714 c -15.06124,0 -27.28348,-9.0873 -36.69683,-27.29595 -2.824,-5.69021 -4.9588,-11.40214 -6.3708,-17.09235 h 155.33334 c 0.94142,7.96634 3.30482,16.22265 7.07012,24.75795 10.82536,23.32989 28.00294,34.98767 51.5361,34.98767 14.59053,0 26.35559,-5.97169 35.29835,-17.92106 5.6479,-7.39736 9.76432,-17.05586 12.3531,-29.00523 2.5884,-11.94949 3.62995,-21.63399 3.15949,-29.03123 -0.47071,-7.39722 -0.69877,-12.7977 -0.69877,-16.21191 V 100.51098 Z m 17.63624,21.33964 h 187.10969 v 182.65527 0.85391 23.04879 c -0.94143,15.93253 -4.47337,27.87592 -10.59212,35.84212 -6.11861,7.39736 -13.41149,11.08417 -21.88341,11.08417 -16.47324,0 -28.49275,-7.94498 -36.0235,-23.87751 -3.76532,-8.53529 -5.87437,-17.07735 -6.34482,-25.61265 l -0.69878,-10.25546 H 230.20691 Z m 28.25422,27.32193 c -6.5892,0 -9.89281,3.97242 -9.89281,11.93862 0,7.39736 3.30361,11.08418 9.89281,11.08418 h 130.60125 c 6.58919,0 9.8928,-3.68682 9.8928,-11.08418 0,-7.9662 -3.30361,-11.93862 -9.8928,-11.93862 z m 0,51.19931 c -6.5892,0 -9.89281,3.97255 -9.89281,11.93875 0,2.8451 0.9401,5.57126 2.82283,8.13195 1.88258,2.56041 4.24596,3.83279 7.06998,3.83279 h 130.60125 c 2.82388,0 5.18726,-1.27291 7.06998,-3.83279 1.88219,-2.56069 2.82282,-5.28685 2.82282,-8.13195 0,-7.9662 -3.30361,-11.93875 -9.8928,-11.93875 z m 0,52.05403 c -6.5892,0 -9.89281,3.71279 -9.89281,11.11016 0,7.9662 3.30361,11.93862 9.89281,11.93862 h 130.60125 c 6.58919,0 9.8928,-3.97242 9.8928,-11.93862 0,-7.39737 -3.30361,-11.11016 -9.8928,-11.11016 z" /></svg>
