<?xml version="1.0" encoding="UTF-8" standalone="no"?>
<!-- Generator: Adobe Illustrator 19.2.0, SVG Export Plug-In . SVG Version: 6.00 Build 0)  -->

<svg
   version="1.1"
   id="Layer_1"
   x="0px"
   y="0px"
   viewBox="0 0 512 512"
   style="enable-background:new 0 0 512 512;"
   xml:space="preserve"
   sodipodi:docname="sound.svg"
   inkscape:version="1.1.1 (3bf5ae0d25, 2021-09-20)"
   xmlns:inkscape="http://www.inkscape.org/namespaces/inkscape"
   xmlns:sodipodi="http://sodipodi.sourceforge.net/DTD/sodipodi-0.dtd"
   xmlns="http://www.w3.org/2000/svg"
   xmlns:svg="http://www.w3.org/2000/svg"><defs
   id="defs29" /><sodipodi:namedview
   id="namedview27"
   pagecolor="#ffffff"
   bordercolor="#666666"
   borderopacity="1.0"
   inkscape:pageshadow="2"
   inkscape:pageopacity="0.0"
   inkscape:pagecheckerboard="0"
   showgrid="false"
   inkscape:zoom="0.77539063"
   inkscape:cx="-56.100756"
   inkscape:cy="169.59194"
   inkscape:window-width="5040"
   inkscape:window-height="979"
   inkscape:window-x="-8"
   inkscape:window-y="-8"
   inkscape:window-maximized="1"
   inkscape:current-layer="Layer_1" />
<style
   type="text/css"
   id="style2">
	.st0{fill:none;stroke:#000000;stroke-width:18;stroke-miterlimit:10;}
	.st1{fill:none;stroke:#000000;stroke-width:18;stroke-linecap:round;stroke-miterlimit:10;}
	.st2{fill:none;stroke:#000000;stroke-width:19;stroke-linecap:round;stroke-miterlimit:10;}
</style>

<g
   id="g826"
   transform="matrix(0.55495039,0,0,0.55495039,49.689478,51.969306)"><path
     d="m 0,0 c 13.827391,10.512174 20.597576,25.087167 23.011719,42.019531 0.092,2.555446 0.13969,5.082998 0.134221,7.637738 l 0.0071,2.281383 c 0.0067,2.525082 0.0062,5.050113 0.0058,7.575203 0.0033,1.827887 0.007,3.655773 0.01114,5.483658 0.01001,5.025394 0.01373,10.050777 0.01639,15.07618 0.0039,5.419517 0.01348,10.839025 0.02221,16.258537 0.01976,13.09077 0.02983,26.18153 0.03873,39.27231 0.0044,6.16812 0.0098,12.33624 0.01499,18.50435 0.01701,20.51107 0.03151,41.02213 0.03875,61.5332 0.0019,5.32194 0.0038,10.64388 0.0058,15.96582 l 7.27e-4,2.0035 c 0.0081,22.08256 0.03335,44.16506 0.06685,66.24759 0.0331,21.9971 0.05109,43.99417 0.05428,65.9913 0.0022,12.3458 0.01087,24.69152 0.03646,37.0373 0.02175,10.51721 0.02974,21.03431 0.02003,31.55154 -0.0045,5.36121 -0.0027,10.72221 0.01676,16.08338 0.01772,4.91925 0.01656,9.83813 0.0011,14.75738 -0.0024,1.76864 0.0019,3.53731 0.01383,5.30591 0.125724,19.85325 -2.709399,39.30431 -17.0403675,54.18372 -8.3454088,7.618 -17.7819935,11.15977 -28.4648435,14.25 l -1.973145,0.59863 c -17.150657,5.19924 -32.361378,4.00814 -48.326172,-4.36035 -15.138528,-8.289 -26.891988,-20.43111 -38.102049,-33.39453 -2.15675,-2.48745 -4.37538,-4.91572 -6.59863,-7.34375 -4.96347,-5.44789 -9.84694,-10.95022 -14.60547,-16.57812 -5.99986,-7.07897 -12.15416,-13.96475 -18.51807,-20.719 -3.54755,-3.76661 -6.99861,-7.5918 -10.37255,-11.51538 -2.14552,-2.40744 -4.4475,-4.64229 -6.75,-6.89844 -1.86484,-1.90221 -3.58897,-3.88668 -5.31641,-5.91406 -6.32304,-7.26238 -12.25876,-13.79009 -22.02691,-15.0505 l -7.22359,-0.6152 c -5.81299,0.20929 -14.93041,0.48418 -24.04986,0.73028 -2.01512,0.057 -4.03,0.12239 -6.04486,0.18835 -13.91246,0.43355 -26.19483,0.60604 -39.09228,-5.12793 l -2.60938,-1.12891 c -6.35051,-3.14241 -11.37831,-7.93784 -16.39062,-12.87109 l -2.35156,-2.3125 c -15.53838,-16.23253 -18.11876,-33.32369 -18.02076,-54.89502 -0.002,-1.8939 -0.006,-3.7878 -0.0111,-5.6817 -0.009,-5.10319 -4e-5,-10.20618 0.0133,-15.30936 0.0114,-5.36218 0.007,-10.72435 0.005,-16.08654 -8.8e-4,-8.99923 0.0101,-17.99839 0.0286,-26.99759 0.0212,-10.3804 0.0247,-20.76069 0.0184,-31.1411 -0.006,-10.01985 -4e-5,-20.03965 0.0112,-30.05949 0.005,-4.24929 0.006,-8.49855 0.003,-12.74784 -0.002,-5.00865 0.006,-10.01718 0.0221,-15.02579 0.004,-1.83006 0.005,-3.66013 0.002,-5.49019 -0.0285,-21.95225 3.71639,-37.88244 18.36863,-54.6435 14.61244,-14.24783 34.5115,-17.73471 54.02344,-17.75 2.80276,-0.0161 5.60547,-0.0379 8.4082,-0.0586 4.39744,-0.0303 8.79459,-0.0531 13.19214,-0.0513 3.5746,8e-4 7.14834,-0.0228 10.72271,-0.0619 2.00158,-0.0154 4.0033,-0.005 6.00491,0.006 9.31056,-0.12346 16.20132,-1.82773 23.25798,-8.08783 l 1.98828,-2.41797 2.23828,-2.652343 2.07422,-2.535156 c 1.11952,-1.296419 2.2442,-2.58841 3.375,-3.875 l 1.69531,-1.945312 c 3.77047,-4.258956 7.63759,-8.430729 11.49024,-12.615235 2.31687,-2.51807 4.62792,-5.041473 6.93945,-7.564453 0.91795,-1.001322 1.83591,-2.002624 2.75391,-3.003906 1.82093,-1.986413 3.64119,-3.973438 5.46093,-5.960938 10.1791,-11.115607 20.40503,-22.186149 30.69922,-33.195312 2.41728,-2.585792 4.82817,-5.177336 7.23438,-7.773438 2.915852,-3.144847 5.845981,-6.275773 8.786614,-9.3974604 C -90.139631,8.18094 -88.740775,6.6596201 -87.34375,5.1367187 -62.778713,-20.817295 -28.205909,-18.693328 0,0 Z m -48.244141,66.221924 -1.58789,1.692138 -1.763672,1.878907 -1.892578,2.039062 -1.939453,2.082031 c -4.247651,4.594835 -8.242647,9.327988 -12.146485,14.21875 -4.188864,5.009015 -8.7178,9.703144 -13.195312,14.453128 -2.882159,3.06065 -5.664738,6.19141 -8.410156,9.375 -3.385406,3.85336 -6.886651,7.60175 -10.376465,11.36035 -2.186548,2.35516 -4.370308,4.71285 -6.551998,7.07251 -8.21016,8.85958 -16.55506,17.57623 -25.05884,26.15454 -1.39336,1.41011 -2.78131,2.82559 -4.16406,4.24609 -2.04543,2.10046 -4.10708,4.18374 -6.17286,6.26416 l -1.8316,1.9003 c -24.02936,23.91421 -66.00557,10.69802 -94.65277,11.06064 v 168 l 58,1 c 30.35546,3.79443 30.35546,3.79443 43.37891,17.01563 l 1.98899,1.98748 c 1.37569,1.37802 2.74774,2.75968 4.11623,4.14484 2.06819,2.09176 4.14935,4.1699 6.23267,6.24658 6.87552,6.89041 13.43025,13.80534 19.2832,21.60547 5.573935,6.98354 11.3661,13.67388 17.437499,20.22266 2.661163,2.88428 5.24949,5.82071 7.820312,8.78515 2.821044,3.22586 5.703196,6.39642 8.578125,9.57422 1.798374,2.00938 3.547726,4.04712 5.289063,6.10547 3.727868,4.28705 7.742389,8.28942 11.75,12.3125 l 2.059082,2.073 1.933105,1.927 1.753418,1.75 c 1.192644,1.36192 1.192644,1.36192 2.379395,1.25 V 65.019531 c -1.169391,-0.11526 -1.169391,-0.11526 -2.25586,1.202393 z"
     fill="#000000"
     transform="translate(370.98828,94.980469)"
     id="path836"
     sodipodi:nodetypes="ccccccccccsssccsccccccccccccccccccccccccccccccccccccccccccccccccccccccccccccccccccccccccccccccccccccccc" /><path
     d="m 0,0 c 12.687715,8.3646425 16.54757,23.578013 21.25,37.25 0.420028,1.211683 0.420028,1.211683 0.848541,2.447845 C 24.093738,45.455849 26.057576,51.223992 28,57 c 0.358289,1.064594 0.358289,1.064594 0.723816,2.150696 9.196303,27.421957 18.34758,56.379674 22.213684,85.099304 0.165,1.21301 0.33,2.42602 0.5,3.67578 0.133418,0.98348 0.133418,0.98348 0.269531,1.98682 0.307725,2.19254 0.641643,4.37993 0.980469,6.56787 C 65.117247,237.74117 51.79423,319.60536 24,408 c -0.37689,1.17031 -0.753779,2.34062 -1.14209,3.54639 C 17.545759,427.78218 11.971055,440.11885 -3.1601563,449.3125 -10.974406,453.17271 -20.495807,453.32002 -29,452 c -6.447118,-2.21023 -11.581457,-5.80171 -16,-11 -0.659355,-0.72703 -0.659355,-0.72703 -1.332031,-1.46875 C -53.332437,431.62301 -53,422.82358 -53,412.69922 c 0.741111,-10.03973 4.593387,-18.57148 8.476563,-27.75293 C -4.1662297,289.1502 -7.3944601,181.67277 -47.370117,59.287109 -52.165555,46.157988 -56.413045,31.232358 -51.4375,17.4375 -46.91216,8.1345364 -38.697322,0.74480411 -29.140625,-3.171875 -19.460116,-5.7244469 -8.7875393,-4.8407102 0,0 Z"
     fill="#000000"
     transform="translate(634,136)"
     id="path838" /><path
     d="m 0,0 c 17.968337,10.39053 22.143536,33.207156 27.238281,51.816406 9.06097,33.99317 13.985108,69.235084 14.882813,104.410154 0.02191,0.81179 0.04383,1.62358 0.06641,2.45996 1.024973,44.84255 -6.637484,88.87597 -20.066406,131.54004 -0.326455,1.04898 -0.65291,2.09795 -0.989258,3.17871 -1.007854,3.21683 -2.036103,6.4263 -3.073242,9.63379 -0.304138,0.96027 -0.608277,1.92054 -0.921631,2.90991 -3.75203,11.33325 -8.7198824,22.01013 -19.3283693,28.21509 -8.8558147,2.55168 -16.4996667,1.12221 -24.6874997,-2.9375 -8.148586,-4.91088 -14.567027,-10.35992 -18.375,-19.1875 -1.817982,-11.08969 -0.01228,-20.87108 3,-31.5625 0.556674,-2.04436 1.107614,-4.09021 1.658188,-6.13623 0.370535,-1.37582 0.742896,-2.75115 1.117096,-4.12597 1.752041,-6.46008 3.279791,-12.96668 4.787216,-19.4878 1.519228,-6.51781 3.16177,-12.83043 5.4375,-19.125 3.245102,-9.10722 4.514672,-18.63286 5.973633,-28.16113 0.401367,-2.21387 0.401367,-2.21387 1.401367,-5.21387 0.06725,-2.09304 -0.0012,-4.16495 -0.0625,-6.25781 0.05358,-2.35085 0.2595,-4.56839 0.542969,-6.89844 5.335996,-46.10945 -6.821894,-100.284491 -23.167969,-143.246091 -2.853907,-7.822763 -3.915598,-16.44719 -0.75,-24.347657 C -40.982968,8.9763575 -32.960334,3.2365619 -24.558594,-0.921875 -17.345835,-3.2139762 -7.0522415,-2.8528916 0,0 Z"
     fill="#000000"
     transform="translate(503.87891,195.77344)"
     id="path840" /></g></svg>
