<?xml version="1.0" encoding="UTF-8" standalone="no"?>
<!-- Generator: Adobe Illustrator 19.2.0, SVG Export Plug-In . SVG Version: 6.00 Build 0)  -->

<svg
   version="1.1"
   id="Layer_1"
   x="0px"
   y="0px"
   viewBox="0 0 50 50"
   style="enable-background:new 0 0 50 50;"
   xml:space="preserve"
   sodipodi:docname="voxels.svg"
   inkscape:version="1.1.2 (0a00cf5339, 2022-02-04)"
   xmlns:inkscape="http://www.inkscape.org/namespaces/inkscape"
   xmlns:sodipodi="http://sodipodi.sourceforge.net/DTD/sodipodi-0.dtd"
   xmlns="http://www.w3.org/2000/svg"
   xmlns:svg="http://www.w3.org/2000/svg"><defs
   id="defs27" /><sodipodi:namedview
   id="namedview25"
   pagecolor="#ffffff"
   bordercolor="#666666"
   borderopacity="1.0"
   inkscape:pageshadow="2"
   inkscape:pageopacity="0.0"
   inkscape:pagecheckerboard="0"
   showgrid="false"
   inkscape:zoom="17.42"
   inkscape:cx="25.028703"
   inkscape:cy="20.407577"
   inkscape:window-width="1918"
   inkscape:window-height="1042"
   inkscape:window-x="1920"
   inkscape:window-y="18"
   inkscape:window-maximized="1"
   inkscape:current-layer="Layer_1" />
<style
   type="text/css"
   id="style2">
	.st0{opacity:0.9;}
	.st1{fill:#1E1E1E;}
	.st2{fill:#EAEAEA;}
</style>

<path
   class="st2"
   d="M 42.986179,11.33074 34.367376,6.3639716 c -0.438244,-0.2921628 -1.02257,-0.2921628 -1.460814,0 L 25.164247,10.892495 17.129769,6.2178902 c -0.438244,-0.2921628 -1.02257,-0.2921628 -1.460814,0 L 7.196233,11.184658 C 6.7579887,11.476821 6.4658259,11.915065 6.4658259,12.35331 v 9.933535 c 0,0.438244 0.2921628,1.02257 0.7304071,1.168651 l 7.888397,4.528524 v 9.057048 c 0,0.438244 0.292162,1.02257 0.730407,1.168651 l 8.618803,4.966768 c 0.292163,0.146081 0.438244,0.146081 0.730407,0.146081 0.292163,0 0.438244,0 0.730407,-0.146081 l 8.618803,-4.966768 c 0.438245,-0.292163 0.730407,-0.730407 0.730407,-1.168651 v -8.910966 l 7.888397,-4.528524 c 0.438244,-0.292163 0.730407,-0.730407 0.730407,-1.168652 V 12.499391 C 43.716586,12.061147 43.424423,11.622902 42.986179,11.33074 Z m -2.04514,8.910965 -5.989337,-3.505954 V 9.8699255 l 5.989337,3.5059535 z m -7.011907,5.551094 -7.304071,-4.236361 v -8.180559 l 5.989338,-3.5059535 v 6.8658255 l -2.921628,1.752977 c -0.584326,0.292163 -0.730407,1.02257 -0.438244,1.606896 0.292162,0.438244 0.584325,0.584326 1.022569,0.584326 0.146082,0 0.438245,0 0.584326,-0.146082 l 2.921628,-1.752977 5.989338,3.505954 z m -7.596234,5.697175 v -6.719745 l 5.989338,3.505954 v 6.719745 z M 23.703433,20.095624 17.714095,16.58967 V 9.7238441 l 5.989338,3.5059539 z M 9.2413727,13.229798 15.230711,9.7238441 V 16.58967 l -3.213791,1.899058 c -0.584326,0.292163 -0.730407,1.02257 -0.438244,1.606896 0.292163,0.438244 0.584325,0.584326 1.02257,0.584326 0.146081,0 0.438244,0 0.584325,-0.146082 l 3.213791,-1.899058 5.989338,3.505954 -5.989338,3.505954 -7.1579893,-4.09028 z m 15.9228743,27.317224 -7.157989,-4.09028 v -8.180559 l 5.989338,-3.505954 v 6.865826 l -2.921629,1.606896 c -0.584325,0.292163 -0.730407,1.02257 -0.438244,1.606895 0.292163,0.438245 0.584326,0.584326 1.02257,0.584326 0.146082,0 0.438244,0 0.584326,-0.146081 l 2.921628,-1.606896 5.989338,3.505954 z"
   id="path10"
   style="stroke-width:1.46081;fill:#000000" />

</svg>
